<svg width="60" height="20" viewBox="0 0 60 20" fill="none" xmlns="http://www.w3.org/2000/svg">
<g clip-path="url(#clip0)">
<path d="M9.12132 0.118958C4.31434 0.118958 0.406738 4.0255 0.406738 8.83116C0.406738 13.6472 4.31434 17.5434 9.12132 17.5434C13.9386 17.5434 17.8359 13.6472 17.8359 8.83116C17.8462 4.0255 13.9386 0.118958 9.12132 0.118958ZM5.64789 5.40002H10.6616L9.89664 6.61952H4.89325L5.64789 5.40002ZM14.0213 11.4872L13.2564 10.2677H11.0338L11.7988 9.04819H12.5017L11.654 7.69434L9.28672 11.4872H2.96012L4.47975 9.05853H3.37362L4.12827 7.83903H9.01794L8.25296 9.05853H5.92701L5.16203 10.278H8.60444L11.654 5.41036L15.4583 11.4975H14.0213V11.4872Z" fill="white"/>
<path d="M57.4494 5.93465L54.7927 11.3146L52.0842 5.93465H49.4275L53.4281 13.9184L50.761 19.116H53.3351L59.9304 5.93465H57.4494Z" fill="white"/>
<path d="M46.5021 6.93761C45.7578 6.20812 44.724 5.78259 43.6075 5.78259C41.1782 5.78259 38.9763 7.75827 38.9763 10.4837C38.9763 13.2091 41.1472 15.1848 43.5145 15.1848C44.6723 15.1848 45.7164 14.7593 46.5021 14.0501V15.0531H48.8694V5.93457H46.5021V6.93761ZM43.9177 13.1078C42.4808 13.1078 41.3229 12.0237 41.3229 10.4938C41.3229 8.95381 42.4808 7.87985 43.9177 7.87985C45.3753 7.87985 46.5124 8.96394 46.5124 10.4938C46.5124 12.0237 45.3753 13.1078 43.9177 13.1078Z" fill="white"/>
<path d="M35.3684 15.0631H37.7357V1.51705L35.3684 2.24653V15.0631Z" fill="white"/>
<path d="M29.7757 2.24662H23.9247V15.0632H26.4987V10.3925H29.6724C32.2361 10.3925 34.1382 8.64985 34.1382 6.28916C34.1485 3.94874 32.3188 2.24662 29.7757 2.24662ZM29.4966 8.23445H26.5091V4.50599H29.4966C30.7268 4.50599 31.5848 5.27599 31.5848 6.37022C31.5952 7.46444 30.7268 8.23445 29.4966 8.23445Z" fill="white"/>
</g>
<defs>
<clipPath id="clip0">
<rect width="59.5237" height="18.9969" fill="white" transform="translate(0.406738 0.118958)"/>
</clipPath>
</defs>
</svg>
